<mxfile host="Electron" agent="Mozilla/5.0 (Windows NT 10.0; Win64; x64) AppleWebKit/537.36 (KHTML, like Gecko) draw.io/24.7.8 Chrome/128.0.6613.36 Electron/32.0.1 Safari/537.36" version="24.7.8" pages="4">
  <diagram name="Создание" id="ZS6ttlS3gcSx6G0GyI-c">
    <mxGraphModel dx="757" dy="681" grid="1" gridSize="10" guides="1" tooltips="1" connect="1" arrows="1" fold="1" page="1" pageScale="1" pageWidth="827" pageHeight="1169" math="0" shadow="0">
      <root>
        <mxCell id="0" />
        <mxCell id="1" parent="0" />
        <mxCell id="Rn2sr7ZVhOmUUKc5eUGO-1" value="Система" style="shape=umlLifeline;perimeter=lifelinePerimeter;whiteSpace=wrap;html=1;container=1;collapsible=0;recursiveResize=0;outlineConnect=0;labelBackgroundColor=none;strokeColor=#9673a6;fontFamily=Helvetica;fontSize=11;fillColor=#e1d5e7;" vertex="1" parent="1">
          <mxGeometry x="200" y="40" width="120" height="350" as="geometry" />
        </mxCell>
        <mxCell id="Rn2sr7ZVhOmUUKc5eUGO-2" value="Валидация данных&lt;br&gt;(Общее: валидация)" style="html=1;verticalAlign=bottom;endArrow=block;rounded=0;labelBackgroundColor=default;strokeColor=default;fontFamily=Helvetica;fontSize=11;fontColor=default;shape=connector;curved=0;" edge="1" parent="Rn2sr7ZVhOmUUKc5eUGO-1" target="Rn2sr7ZVhOmUUKc5eUGO-4">
          <mxGeometry x="0.0968" width="80" relative="1" as="geometry">
            <mxPoint x="65" y="184" as="sourcePoint" />
            <mxPoint x="130" y="234" as="targetPoint" />
            <Array as="points">
              <mxPoint x="130" y="184" />
              <mxPoint x="130" y="214" />
              <mxPoint x="100" y="214" />
            </Array>
            <mxPoint as="offset" />
          </mxGeometry>
        </mxCell>
        <mxCell id="Rn2sr7ZVhOmUUKc5eUGO-3" value="" style="html=1;points=[];perimeter=orthogonalPerimeter;labelBackgroundColor=none;strokeColor=#000000;fontFamily=Helvetica;fontSize=11;fontColor=default;fillColor=default;" vertex="1" parent="Rn2sr7ZVhOmUUKc5eUGO-1">
          <mxGeometry x="55" y="90" width="10" height="180" as="geometry" />
        </mxCell>
        <mxCell id="Rn2sr7ZVhOmUUKc5eUGO-4" value="" style="html=1;points=[];perimeter=orthogonalPerimeter;labelBackgroundColor=none;strokeColor=#001DBC;fontFamily=Helvetica;fontSize=11;fontColor=#ffffff;fillColor=#0050ef;" vertex="1" parent="Rn2sr7ZVhOmUUKc5eUGO-1">
          <mxGeometry x="60" y="214" width="10" height="20" as="geometry" />
        </mxCell>
        <mxCell id="Rn2sr7ZVhOmUUKc5eUGO-5" value="" style="html=1;points=[];perimeter=orthogonalPerimeter;labelBackgroundColor=none;strokeColor=#B09500;fontFamily=Helvetica;fontSize=11;fontColor=#000000;fillColor=#e3c800;" vertex="1" parent="Rn2sr7ZVhOmUUKc5eUGO-1">
          <mxGeometry x="60" y="140" width="10" height="20" as="geometry" />
        </mxCell>
        <mxCell id="Rn2sr7ZVhOmUUKc5eUGO-6" value="Проверка токена&lt;br&gt;(Общее: проверка прав)" style="html=1;verticalAlign=bottom;endArrow=block;rounded=0;labelBackgroundColor=default;strokeColor=default;fontFamily=Helvetica;fontSize=11;fontColor=default;shape=connector;curved=0;" edge="1" parent="Rn2sr7ZVhOmUUKc5eUGO-1" target="Rn2sr7ZVhOmUUKc5eUGO-5">
          <mxGeometry x="-0.1613" y="10" width="80" relative="1" as="geometry">
            <mxPoint x="65" y="110" as="sourcePoint" />
            <mxPoint x="130" y="160" as="targetPoint" />
            <Array as="points">
              <mxPoint x="130" y="110" />
              <mxPoint x="130" y="140" />
              <mxPoint x="100" y="140" />
            </Array>
            <mxPoint x="10" y="10" as="offset" />
          </mxGeometry>
        </mxCell>
        <mxCell id="Rn2sr7ZVhOmUUKc5eUGO-7" value="Пользователь" style="shape=umlLifeline;perimeter=lifelinePerimeter;whiteSpace=wrap;html=1;container=1;collapsible=0;recursiveResize=0;outlineConnect=0;labelBackgroundColor=none;strokeColor=#d6b656;fontFamily=Helvetica;fontSize=11;fillColor=#fff2cc;" vertex="1" parent="1">
          <mxGeometry x="40" y="40" width="120" height="350" as="geometry" />
        </mxCell>
        <mxCell id="Rn2sr7ZVhOmUUKc5eUGO-8" value="" style="html=1;points=[];perimeter=orthogonalPerimeter;labelBackgroundColor=none;strokeColor=#000000;fontFamily=Helvetica;fontSize=11;fontColor=default;fillColor=default;" vertex="1" parent="Rn2sr7ZVhOmUUKc5eUGO-7">
          <mxGeometry x="55" y="80" width="10" height="250" as="geometry" />
        </mxCell>
        <mxCell id="Rn2sr7ZVhOmUUKc5eUGO-9" value="" style="ellipse;html=1;shape=endState;fillColor=#000000;strokeColor=#ff0000;labelBackgroundColor=none;fontFamily=Helvetica;fontSize=11;fontColor=default;" vertex="1" parent="Rn2sr7ZVhOmUUKc5eUGO-7">
          <mxGeometry x="45" y="340" width="30" height="30" as="geometry" />
        </mxCell>
        <mxCell id="Rn2sr7ZVhOmUUKc5eUGO-10" value="Запрос создания" style="html=1;verticalAlign=bottom;endArrow=block;rounded=0;labelBackgroundColor=default;strokeColor=default;fontFamily=Helvetica;fontSize=11;fontColor=default;shape=connector;curved=0;" edge="1" parent="1" source="Rn2sr7ZVhOmUUKc5eUGO-8" target="Rn2sr7ZVhOmUUKc5eUGO-3">
          <mxGeometry x="0.0032" width="80" relative="1" as="geometry">
            <mxPoint x="100" y="140" as="sourcePoint" />
            <mxPoint x="180" y="140" as="targetPoint" />
            <Array as="points">
              <mxPoint x="180" y="130" />
            </Array>
            <mxPoint as="offset" />
          </mxGeometry>
        </mxCell>
        <mxCell id="Rn2sr7ZVhOmUUKc5eUGO-11" value="Контроллер&lt;div&gt;городов&lt;/div&gt;" style="shape=umlLifeline;perimeter=lifelinePerimeter;whiteSpace=wrap;html=1;container=1;collapsible=0;recursiveResize=0;outlineConnect=0;labelBackgroundColor=none;strokeColor=#d79b00;fontFamily=Helvetica;fontSize=11;fillColor=#ffe6cc;" vertex="1" parent="1">
          <mxGeometry x="360" y="40" width="120" height="350" as="geometry" />
        </mxCell>
        <mxCell id="Rn2sr7ZVhOmUUKc5eUGO-12" value="" style="html=1;points=[];perimeter=orthogonalPerimeter;labelBackgroundColor=none;strokeColor=#000000;fontFamily=Helvetica;fontSize=11;fontColor=default;fillColor=default;" vertex="1" parent="Rn2sr7ZVhOmUUKc5eUGO-11">
          <mxGeometry x="55" y="260" width="10" height="60" as="geometry" />
        </mxCell>
        <mxCell id="Rn2sr7ZVhOmUUKc5eUGO-13" value="Отправка данных" style="html=1;verticalAlign=bottom;endArrow=block;rounded=0;labelBackgroundColor=default;strokeColor=default;fontFamily=Helvetica;fontSize=11;fontColor=default;shape=connector;curved=0;" edge="1" parent="Rn2sr7ZVhOmUUKc5eUGO-11">
          <mxGeometry x="0.0032" width="80" relative="1" as="geometry">
            <mxPoint x="-95" y="260" as="sourcePoint" />
            <mxPoint x="55" y="260" as="targetPoint" />
            <Array as="points">
              <mxPoint x="-20" y="260" />
            </Array>
            <mxPoint as="offset" />
          </mxGeometry>
        </mxCell>
        <mxCell id="Rn2sr7ZVhOmUUKc5eUGO-14" value="База данных" style="shape=umlLifeline;perimeter=lifelinePerimeter;whiteSpace=wrap;html=1;container=1;collapsible=0;recursiveResize=0;outlineConnect=0;labelBackgroundColor=none;strokeColor=#82b366;fontFamily=Helvetica;fontSize=11;fillColor=#d5e8d4;" vertex="1" parent="1">
          <mxGeometry x="520" y="40" width="120" height="350" as="geometry" />
        </mxCell>
        <mxCell id="Rn2sr7ZVhOmUUKc5eUGO-15" value="" style="html=1;points=[];perimeter=orthogonalPerimeter;labelBackgroundColor=none;strokeColor=#000000;fontFamily=Helvetica;fontSize=11;fontColor=default;fillColor=default;" vertex="1" parent="Rn2sr7ZVhOmUUKc5eUGO-14">
          <mxGeometry x="55" y="270" width="10" height="30" as="geometry" />
        </mxCell>
        <mxCell id="Rn2sr7ZVhOmUUKc5eUGO-16" value="return" style="html=1;verticalAlign=bottom;endArrow=open;dashed=1;endSize=8;rounded=0;labelBackgroundColor=default;strokeColor=default;fontFamily=Helvetica;fontSize=11;fontColor=default;shape=connector;curved=0;" edge="1" parent="Rn2sr7ZVhOmUUKc5eUGO-14">
          <mxGeometry x="0.0023" relative="1" as="geometry">
            <mxPoint x="53" y="290" as="sourcePoint" />
            <mxPoint x="-95" y="290" as="targetPoint" />
            <Array as="points">
              <mxPoint x="-42" y="290" />
              <mxPoint x="-62" y="290" />
            </Array>
            <mxPoint as="offset" />
          </mxGeometry>
        </mxCell>
        <mxCell id="Rn2sr7ZVhOmUUKc5eUGO-17" value="Запись города" style="html=1;verticalAlign=bottom;endArrow=block;rounded=0;labelBackgroundColor=default;strokeColor=default;fontFamily=Helvetica;fontSize=11;fontColor=default;shape=connector;curved=0;" edge="1" parent="Rn2sr7ZVhOmUUKc5eUGO-14">
          <mxGeometry x="0.0032" width="80" relative="1" as="geometry">
            <mxPoint x="-95" y="270" as="sourcePoint" />
            <mxPoint x="55" y="270" as="targetPoint" />
            <Array as="points" />
            <mxPoint as="offset" />
          </mxGeometry>
        </mxCell>
        <mxCell id="Rn2sr7ZVhOmUUKc5eUGO-18" value="Ответ 201 с данными о городе" style="html=1;verticalAlign=bottom;endArrow=open;dashed=1;endSize=8;rounded=0;labelBackgroundColor=default;strokeColor=default;fontFamily=Helvetica;fontSize=11;fontColor=default;shape=connector;curved=0;" edge="1" parent="1">
          <mxGeometry x="0.0023" relative="1" as="geometry">
            <mxPoint x="414" y="350" as="sourcePoint" />
            <mxPoint x="104" y="350" as="targetPoint" />
            <Array as="points">
              <mxPoint x="299" y="350" />
            </Array>
            <mxPoint as="offset" />
          </mxGeometry>
        </mxCell>
      </root>
    </mxGraphModel>
  </diagram>
  <diagram id="DLxgPvrveicZnozhr-Ib" name="Просмотр">
    <mxGraphModel dx="915" dy="823" grid="1" gridSize="10" guides="1" tooltips="1" connect="1" arrows="1" fold="1" page="1" pageScale="1" pageWidth="827" pageHeight="1169" math="0" shadow="0">
      <root>
        <mxCell id="0" />
        <mxCell id="1" parent="0" />
        <mxCell id="VKBIC0sA8OyXbzlYKKrk-1" value="Пользователь" style="shape=umlLifeline;perimeter=lifelinePerimeter;whiteSpace=wrap;html=1;container=1;collapsible=0;recursiveResize=0;outlineConnect=0;labelBackgroundColor=none;strokeColor=#d6b656;fontFamily=Helvetica;fontSize=11;fillColor=#fff2cc;" vertex="1" parent="1">
          <mxGeometry x="80" y="40" width="120" height="290" as="geometry" />
        </mxCell>
        <mxCell id="VKBIC0sA8OyXbzlYKKrk-2" value="" style="html=1;points=[];perimeter=orthogonalPerimeter;labelBackgroundColor=none;strokeColor=#000000;fontFamily=Helvetica;fontSize=11;fontColor=default;fillColor=default;" vertex="1" parent="VKBIC0sA8OyXbzlYKKrk-1">
          <mxGeometry x="55" y="80" width="10" height="190" as="geometry" />
        </mxCell>
        <mxCell id="VKBIC0sA8OyXbzlYKKrk-3" value="" style="ellipse;html=1;shape=endState;fillColor=#000000;strokeColor=#ff0000;labelBackgroundColor=none;fontFamily=Helvetica;fontSize=11;fontColor=default;" vertex="1" parent="VKBIC0sA8OyXbzlYKKrk-1">
          <mxGeometry x="45" y="280" width="30" height="30" as="geometry" />
        </mxCell>
        <mxCell id="VKBIC0sA8OyXbzlYKKrk-4" value="Система" style="shape=umlLifeline;perimeter=lifelinePerimeter;whiteSpace=wrap;html=1;container=1;collapsible=0;recursiveResize=0;outlineConnect=0;labelBackgroundColor=none;strokeColor=#9673a6;fontFamily=Helvetica;fontSize=11;fillColor=#e1d5e7;" vertex="1" parent="1">
          <mxGeometry x="240" y="40" width="120" height="290" as="geometry" />
        </mxCell>
        <mxCell id="VKBIC0sA8OyXbzlYKKrk-5" value="Валидация данных&lt;br&gt;(Общее: валидация)" style="html=1;verticalAlign=bottom;endArrow=block;rounded=0;labelBackgroundColor=default;strokeColor=default;fontFamily=Helvetica;fontSize=11;fontColor=default;shape=connector;curved=0;" edge="1" parent="VKBIC0sA8OyXbzlYKKrk-4" source="VKBIC0sA8OyXbzlYKKrk-6" target="VKBIC0sA8OyXbzlYKKrk-7">
          <mxGeometry x="0.0968" width="80" relative="1" as="geometry">
            <mxPoint x="64" y="110" as="sourcePoint" />
            <mxPoint x="130" y="150" as="targetPoint" />
            <Array as="points">
              <mxPoint x="130" y="100" />
              <mxPoint x="130" y="130" />
              <mxPoint x="100" y="130" />
            </Array>
            <mxPoint as="offset" />
          </mxGeometry>
        </mxCell>
        <mxCell id="VKBIC0sA8OyXbzlYKKrk-6" value="" style="html=1;points=[];perimeter=orthogonalPerimeter;labelBackgroundColor=none;strokeColor=#000000;fontFamily=Helvetica;fontSize=11;fontColor=default;fillColor=default;" vertex="1" parent="VKBIC0sA8OyXbzlYKKrk-4">
          <mxGeometry x="55" y="90" width="10" height="110" as="geometry" />
        </mxCell>
        <mxCell id="VKBIC0sA8OyXbzlYKKrk-7" value="" style="html=1;points=[];perimeter=orthogonalPerimeter;labelBackgroundColor=none;strokeColor=#001DBC;fontFamily=Helvetica;fontSize=11;fontColor=#ffffff;fillColor=#0050ef;" vertex="1" parent="VKBIC0sA8OyXbzlYKKrk-4">
          <mxGeometry x="60" y="130" width="10" height="20" as="geometry" />
        </mxCell>
        <mxCell id="VKBIC0sA8OyXbzlYKKrk-8" value="Запрос просмотра" style="html=1;verticalAlign=bottom;endArrow=block;rounded=0;labelBackgroundColor=default;strokeColor=default;fontFamily=Helvetica;fontSize=11;fontColor=default;shape=connector;curved=0;" edge="1" parent="1" source="VKBIC0sA8OyXbzlYKKrk-2" target="VKBIC0sA8OyXbzlYKKrk-6">
          <mxGeometry x="0.0032" width="80" relative="1" as="geometry">
            <mxPoint x="140" y="140" as="sourcePoint" />
            <mxPoint x="220" y="140" as="targetPoint" />
            <Array as="points">
              <mxPoint x="220" y="130" />
            </Array>
            <mxPoint as="offset" />
          </mxGeometry>
        </mxCell>
        <mxCell id="VKBIC0sA8OyXbzlYKKrk-9" value="Контроллер&lt;div&gt;городов&lt;/div&gt;" style="shape=umlLifeline;perimeter=lifelinePerimeter;whiteSpace=wrap;html=1;container=1;collapsible=0;recursiveResize=0;outlineConnect=0;labelBackgroundColor=none;strokeColor=#d79b00;fontFamily=Helvetica;fontSize=11;fillColor=#ffe6cc;" vertex="1" parent="1">
          <mxGeometry x="400" y="40" width="120" height="290" as="geometry" />
        </mxCell>
        <mxCell id="VKBIC0sA8OyXbzlYKKrk-10" value="" style="html=1;points=[];perimeter=orthogonalPerimeter;labelBackgroundColor=none;strokeColor=#000000;fontFamily=Helvetica;fontSize=11;fontColor=default;fillColor=default;" vertex="1" parent="VKBIC0sA8OyXbzlYKKrk-9">
          <mxGeometry x="55" y="190.75" width="10" height="79.25" as="geometry" />
        </mxCell>
        <mxCell id="VKBIC0sA8OyXbzlYKKrk-11" value="Отправка данных" style="html=1;verticalAlign=bottom;endArrow=block;rounded=0;labelBackgroundColor=default;strokeColor=default;fontFamily=Helvetica;fontSize=11;fontColor=default;shape=connector;curved=0;" edge="1" parent="VKBIC0sA8OyXbzlYKKrk-9">
          <mxGeometry x="0.0032" width="80" relative="1" as="geometry">
            <mxPoint x="-95" y="190" as="sourcePoint" />
            <mxPoint x="55" y="190" as="targetPoint" />
            <Array as="points">
              <mxPoint x="-20" y="190" />
            </Array>
            <mxPoint as="offset" />
          </mxGeometry>
        </mxCell>
        <mxCell id="VKBIC0sA8OyXbzlYKKrk-12" value="Ответ 200 с&lt;br&gt;данными о городе" style="html=1;verticalAlign=bottom;endArrow=open;dashed=1;endSize=8;rounded=0;labelBackgroundColor=default;strokeColor=default;fontFamily=Helvetica;fontSize=11;fontColor=default;shape=connector;curved=0;" edge="1" parent="VKBIC0sA8OyXbzlYKKrk-9">
          <mxGeometry x="0.0023" relative="1" as="geometry">
            <mxPoint x="55" y="260" as="sourcePoint" />
            <mxPoint x="-255" y="260" as="targetPoint" />
            <Array as="points">
              <mxPoint x="-60" y="260" />
            </Array>
            <mxPoint as="offset" />
          </mxGeometry>
        </mxCell>
        <mxCell id="VKBIC0sA8OyXbzlYKKrk-13" value="Поиск города&lt;br&gt;(Общее: поиск по id)" style="html=1;verticalAlign=bottom;endArrow=block;rounded=0;labelBackgroundColor=default;strokeColor=default;fontFamily=Helvetica;fontSize=11;fontColor=default;shape=connector;curved=0;" edge="1" parent="VKBIC0sA8OyXbzlYKKrk-9" target="VKBIC0sA8OyXbzlYKKrk-14">
          <mxGeometry x="-0.1613" width="80" relative="1" as="geometry">
            <mxPoint x="65" y="200" as="sourcePoint" />
            <mxPoint x="130" y="250" as="targetPoint" />
            <Array as="points">
              <mxPoint x="130" y="200" />
              <mxPoint x="130" y="230" />
              <mxPoint x="100" y="230" />
            </Array>
            <mxPoint as="offset" />
          </mxGeometry>
        </mxCell>
        <mxCell id="VKBIC0sA8OyXbzlYKKrk-14" value="" style="html=1;points=[];perimeter=orthogonalPerimeter;labelBackgroundColor=none;strokeColor=#488F00;fontFamily=Helvetica;fontSize=11;fontColor=#ffffff;fillColor=#66CC00;" vertex="1" parent="VKBIC0sA8OyXbzlYKKrk-9">
          <mxGeometry x="60" y="230" width="10" height="20" as="geometry" />
        </mxCell>
      </root>
    </mxGraphModel>
  </diagram>
  <diagram id="OEqTAFtVjBCOSqu9fF1X" name="Редактирование">
    <mxGraphModel dx="915" dy="823" grid="1" gridSize="10" guides="1" tooltips="1" connect="1" arrows="1" fold="1" page="1" pageScale="1" pageWidth="827" pageHeight="1169" math="0" shadow="0">
      <root>
        <mxCell id="0" />
        <mxCell id="1" parent="0" />
        <mxCell id="lCJiIKGrEVzd9VQT6lIB-1" value="Пользователь" style="shape=umlLifeline;perimeter=lifelinePerimeter;whiteSpace=wrap;html=1;container=1;collapsible=0;recursiveResize=0;outlineConnect=0;labelBackgroundColor=none;strokeColor=#d6b656;fontFamily=Helvetica;fontSize=11;fillColor=#fff2cc;" vertex="1" parent="1">
          <mxGeometry x="80" y="40" width="120" height="400" as="geometry" />
        </mxCell>
        <mxCell id="lCJiIKGrEVzd9VQT6lIB-2" value="" style="html=1;points=[];perimeter=orthogonalPerimeter;labelBackgroundColor=none;strokeColor=#000000;fontFamily=Helvetica;fontSize=11;fontColor=default;fillColor=default;" vertex="1" parent="lCJiIKGrEVzd9VQT6lIB-1">
          <mxGeometry x="55" y="80" width="10" height="300" as="geometry" />
        </mxCell>
        <mxCell id="lCJiIKGrEVzd9VQT6lIB-3" value="" style="ellipse;html=1;shape=endState;fillColor=#000000;strokeColor=#ff0000;labelBackgroundColor=none;fontFamily=Helvetica;fontSize=11;fontColor=default;" vertex="1" parent="lCJiIKGrEVzd9VQT6lIB-1">
          <mxGeometry x="45" y="390" width="30" height="30" as="geometry" />
        </mxCell>
        <mxCell id="lCJiIKGrEVzd9VQT6lIB-4" value="Система" style="shape=umlLifeline;perimeter=lifelinePerimeter;whiteSpace=wrap;html=1;container=1;collapsible=0;recursiveResize=0;outlineConnect=0;labelBackgroundColor=none;strokeColor=#9673a6;fontFamily=Helvetica;fontSize=11;fillColor=#e1d5e7;" vertex="1" parent="1">
          <mxGeometry x="240" y="40" width="120" height="400" as="geometry" />
        </mxCell>
        <mxCell id="lCJiIKGrEVzd9VQT6lIB-5" value="Валидация данных&lt;br&gt;(Общее: валидация)" style="html=1;verticalAlign=bottom;endArrow=block;rounded=0;labelBackgroundColor=default;strokeColor=default;fontFamily=Helvetica;fontSize=11;fontColor=default;shape=connector;curved=0;" edge="1" parent="lCJiIKGrEVzd9VQT6lIB-4" target="lCJiIKGrEVzd9VQT6lIB-7">
          <mxGeometry x="-0.1613" y="9" width="80" relative="1" as="geometry">
            <mxPoint x="66" y="170" as="sourcePoint" />
            <mxPoint x="131" y="220" as="targetPoint" />
            <Array as="points">
              <mxPoint x="131" y="170" />
              <mxPoint x="131" y="200" />
              <mxPoint x="101" y="200" />
            </Array>
            <mxPoint as="offset" />
          </mxGeometry>
        </mxCell>
        <mxCell id="lCJiIKGrEVzd9VQT6lIB-6" value="" style="html=1;points=[];perimeter=orthogonalPerimeter;labelBackgroundColor=none;strokeColor=#000000;fontFamily=Helvetica;fontSize=11;fontColor=default;fillColor=default;" vertex="1" parent="lCJiIKGrEVzd9VQT6lIB-4">
          <mxGeometry x="55" y="90" width="10" height="160" as="geometry" />
        </mxCell>
        <mxCell id="lCJiIKGrEVzd9VQT6lIB-7" value="" style="html=1;points=[];perimeter=orthogonalPerimeter;labelBackgroundColor=none;strokeColor=#001DBC;fontFamily=Helvetica;fontSize=11;fontColor=#ffffff;fillColor=#0050ef;" vertex="1" parent="lCJiIKGrEVzd9VQT6lIB-4">
          <mxGeometry x="61" y="200" width="10" height="20" as="geometry" />
        </mxCell>
        <mxCell id="lCJiIKGrEVzd9VQT6lIB-8" value="Проверка токена&lt;br&gt;(Общее: проверка прав)" style="html=1;verticalAlign=bottom;endArrow=block;rounded=0;labelBackgroundColor=default;strokeColor=default;fontFamily=Helvetica;fontSize=11;fontColor=default;shape=connector;curved=0;" edge="1" parent="lCJiIKGrEVzd9VQT6lIB-4" target="lCJiIKGrEVzd9VQT6lIB-9">
          <mxGeometry x="-0.1613" y="9" width="80" relative="1" as="geometry">
            <mxPoint x="66" y="110" as="sourcePoint" />
            <mxPoint x="131" y="160" as="targetPoint" />
            <Array as="points">
              <mxPoint x="131" y="110" />
              <mxPoint x="131" y="140" />
              <mxPoint x="101" y="140" />
            </Array>
            <mxPoint as="offset" />
          </mxGeometry>
        </mxCell>
        <mxCell id="lCJiIKGrEVzd9VQT6lIB-9" value="" style="html=1;points=[];perimeter=orthogonalPerimeter;labelBackgroundColor=none;strokeColor=#B09500;fontFamily=Helvetica;fontSize=11;fontColor=#000000;fillColor=#e3c800;" vertex="1" parent="lCJiIKGrEVzd9VQT6lIB-4">
          <mxGeometry x="61" y="140" width="10" height="20" as="geometry" />
        </mxCell>
        <mxCell id="lCJiIKGrEVzd9VQT6lIB-10" value="Запрос редактирования" style="html=1;verticalAlign=bottom;endArrow=block;rounded=0;labelBackgroundColor=default;strokeColor=default;fontFamily=Helvetica;fontSize=11;fontColor=default;shape=connector;curved=0;" edge="1" parent="1" source="lCJiIKGrEVzd9VQT6lIB-2" target="lCJiIKGrEVzd9VQT6lIB-6">
          <mxGeometry x="0.0032" width="80" relative="1" as="geometry">
            <mxPoint x="140" y="140" as="sourcePoint" />
            <mxPoint x="220" y="140" as="targetPoint" />
            <Array as="points">
              <mxPoint x="220" y="130" />
            </Array>
            <mxPoint as="offset" />
          </mxGeometry>
        </mxCell>
        <mxCell id="lCJiIKGrEVzd9VQT6lIB-11" value="Контроллер&lt;div&gt;городов&lt;/div&gt;" style="shape=umlLifeline;perimeter=lifelinePerimeter;whiteSpace=wrap;html=1;container=1;collapsible=0;recursiveResize=0;outlineConnect=0;labelBackgroundColor=none;strokeColor=#d79b00;fontFamily=Helvetica;fontSize=11;fillColor=#ffe6cc;" vertex="1" parent="1">
          <mxGeometry x="400" y="40" width="120" height="400" as="geometry" />
        </mxCell>
        <mxCell id="lCJiIKGrEVzd9VQT6lIB-12" value="" style="html=1;points=[];perimeter=orthogonalPerimeter;labelBackgroundColor=none;strokeColor=#000000;fontFamily=Helvetica;fontSize=11;fontColor=default;fillColor=default;" vertex="1" parent="lCJiIKGrEVzd9VQT6lIB-11">
          <mxGeometry x="55" y="240" width="10" height="130" as="geometry" />
        </mxCell>
        <mxCell id="lCJiIKGrEVzd9VQT6lIB-13" value="Поиск города&lt;br&gt;(Общее: поиск по id)" style="html=1;verticalAlign=bottom;endArrow=block;rounded=0;labelBackgroundColor=default;strokeColor=default;fontFamily=Helvetica;fontSize=11;fontColor=default;shape=connector;curved=0;" edge="1" parent="lCJiIKGrEVzd9VQT6lIB-11" target="lCJiIKGrEVzd9VQT6lIB-14">
          <mxGeometry x="-0.1613" width="80" relative="1" as="geometry">
            <mxPoint x="65" y="260" as="sourcePoint" />
            <mxPoint x="130" y="310" as="targetPoint" />
            <Array as="points">
              <mxPoint x="130" y="260" />
              <mxPoint x="130" y="290" />
              <mxPoint x="100" y="290" />
            </Array>
            <mxPoint as="offset" />
          </mxGeometry>
        </mxCell>
        <mxCell id="lCJiIKGrEVzd9VQT6lIB-14" value="" style="html=1;points=[];perimeter=orthogonalPerimeter;labelBackgroundColor=none;strokeColor=#488F00;fontFamily=Helvetica;fontSize=11;fontColor=#ffffff;fillColor=#66CC00;" vertex="1" parent="lCJiIKGrEVzd9VQT6lIB-11">
          <mxGeometry x="60" y="290" width="10" height="20" as="geometry" />
        </mxCell>
        <mxCell id="lCJiIKGrEVzd9VQT6lIB-15" value="Отправка данных" style="html=1;verticalAlign=bottom;endArrow=block;rounded=0;labelBackgroundColor=default;strokeColor=default;fontFamily=Helvetica;fontSize=11;fontColor=default;shape=connector;curved=0;" edge="1" parent="lCJiIKGrEVzd9VQT6lIB-11">
          <mxGeometry x="0.0032" width="80" relative="1" as="geometry">
            <mxPoint x="-95" y="240" as="sourcePoint" />
            <mxPoint x="55" y="240" as="targetPoint" />
            <Array as="points">
              <mxPoint x="-20" y="240" />
            </Array>
            <mxPoint as="offset" />
          </mxGeometry>
        </mxCell>
        <mxCell id="lCJiIKGrEVzd9VQT6lIB-16" value="Ответ 204 No Content&amp;nbsp;" style="html=1;verticalAlign=bottom;endArrow=open;dashed=1;endSize=8;rounded=0;labelBackgroundColor=default;strokeColor=default;fontFamily=Helvetica;fontSize=11;fontColor=default;shape=connector;curved=0;" edge="1" parent="lCJiIKGrEVzd9VQT6lIB-11">
          <mxGeometry x="0.0023" relative="1" as="geometry">
            <mxPoint x="55" y="360" as="sourcePoint" />
            <mxPoint x="-255" y="360" as="targetPoint" />
            <Array as="points">
              <mxPoint x="-60" y="360" />
            </Array>
            <mxPoint as="offset" />
          </mxGeometry>
        </mxCell>
        <mxCell id="lCJiIKGrEVzd9VQT6lIB-17" value="База данных" style="shape=umlLifeline;perimeter=lifelinePerimeter;whiteSpace=wrap;html=1;container=1;collapsible=0;recursiveResize=0;outlineConnect=0;labelBackgroundColor=none;strokeColor=#82b366;fontFamily=Helvetica;fontSize=11;fillColor=#d5e8d4;" vertex="1" parent="1">
          <mxGeometry x="560" y="40" width="120" height="400" as="geometry" />
        </mxCell>
        <mxCell id="lCJiIKGrEVzd9VQT6lIB-18" value="" style="html=1;points=[];perimeter=orthogonalPerimeter;labelBackgroundColor=none;strokeColor=#000000;fontFamily=Helvetica;fontSize=11;fontColor=default;fillColor=default;" vertex="1" parent="lCJiIKGrEVzd9VQT6lIB-17">
          <mxGeometry x="55" y="310" width="10" height="40" as="geometry" />
        </mxCell>
        <mxCell id="lCJiIKGrEVzd9VQT6lIB-19" value="" style="html=1;verticalAlign=bottom;endArrow=open;dashed=1;endSize=8;rounded=0;labelBackgroundColor=default;strokeColor=default;fontFamily=Helvetica;fontSize=11;fontColor=default;shape=connector;curved=0;" edge="1" parent="lCJiIKGrEVzd9VQT6lIB-17">
          <mxGeometry x="0.0023" relative="1" as="geometry">
            <mxPoint x="53" y="340" as="sourcePoint" />
            <mxPoint x="-95" y="340" as="targetPoint" />
            <Array as="points">
              <mxPoint x="-42" y="340" />
              <mxPoint x="-62" y="340" />
            </Array>
            <mxPoint as="offset" />
          </mxGeometry>
        </mxCell>
        <mxCell id="lCJiIKGrEVzd9VQT6lIB-20" value="return" style="edgeLabel;html=1;align=center;verticalAlign=middle;resizable=0;points=[];fontFamily=Helvetica;fontSize=11;fontColor=default;labelBackgroundColor=default;" vertex="1" connectable="0" parent="lCJiIKGrEVzd9VQT6lIB-19">
          <mxGeometry x="-0.0946" relative="1" as="geometry">
            <mxPoint x="-6" y="-10" as="offset" />
          </mxGeometry>
        </mxCell>
        <mxCell id="lCJiIKGrEVzd9VQT6lIB-21" value="Запись новых данных" style="html=1;verticalAlign=bottom;endArrow=block;rounded=0;labelBackgroundColor=default;strokeColor=default;fontFamily=Helvetica;fontSize=11;fontColor=default;shape=connector;curved=0;" edge="1" parent="lCJiIKGrEVzd9VQT6lIB-17">
          <mxGeometry x="0.0032" width="80" relative="1" as="geometry">
            <mxPoint x="-95" y="320" as="sourcePoint" />
            <mxPoint x="55" y="320" as="targetPoint" />
            <Array as="points" />
            <mxPoint as="offset" />
          </mxGeometry>
        </mxCell>
      </root>
    </mxGraphModel>
  </diagram>
  <diagram id="kuBX_0XNHVouxDDTZNiN" name="Удаление">
    <mxGraphModel dx="757" dy="681" grid="1" gridSize="10" guides="1" tooltips="1" connect="1" arrows="1" fold="1" page="1" pageScale="1" pageWidth="827" pageHeight="1169" math="0" shadow="0">
      <root>
        <mxCell id="0" />
        <mxCell id="1" parent="0" />
        <mxCell id="icSRo4xPD5mua4hbZzur-1" value="Пользователь" style="shape=umlLifeline;perimeter=lifelinePerimeter;whiteSpace=wrap;html=1;container=1;collapsible=0;recursiveResize=0;outlineConnect=0;labelBackgroundColor=none;strokeColor=#d6b656;fontFamily=Helvetica;fontSize=11;fillColor=#fff2cc;" vertex="1" parent="1">
          <mxGeometry x="40" y="40" width="120" height="370" as="geometry" />
        </mxCell>
        <mxCell id="icSRo4xPD5mua4hbZzur-2" value="" style="html=1;points=[];perimeter=orthogonalPerimeter;labelBackgroundColor=none;strokeColor=#000000;fontFamily=Helvetica;fontSize=11;fontColor=default;fillColor=default;" vertex="1" parent="icSRo4xPD5mua4hbZzur-1">
          <mxGeometry x="55" y="80" width="10" height="270" as="geometry" />
        </mxCell>
        <mxCell id="icSRo4xPD5mua4hbZzur-3" value="" style="ellipse;html=1;shape=endState;fillColor=#000000;strokeColor=#ff0000;fontFamily=Helvetica;fontSize=11;fontColor=default;labelBackgroundColor=default;" vertex="1" parent="icSRo4xPD5mua4hbZzur-1">
          <mxGeometry x="45" y="360" width="30" height="30" as="geometry" />
        </mxCell>
        <mxCell id="icSRo4xPD5mua4hbZzur-4" value="Система" style="shape=umlLifeline;perimeter=lifelinePerimeter;whiteSpace=wrap;html=1;container=1;collapsible=0;recursiveResize=0;outlineConnect=0;labelBackgroundColor=none;strokeColor=#9673a6;fontFamily=Helvetica;fontSize=11;fillColor=#e1d5e7;" vertex="1" parent="1">
          <mxGeometry x="200" y="40" width="120" height="370" as="geometry" />
        </mxCell>
        <mxCell id="icSRo4xPD5mua4hbZzur-5" value="Проверка токена&lt;br&gt;(Общее: проверка прав)" style="html=1;verticalAlign=bottom;endArrow=block;rounded=0;labelBackgroundColor=default;strokeColor=default;fontFamily=Helvetica;fontSize=11;fontColor=default;shape=connector;curved=0;" edge="1" parent="icSRo4xPD5mua4hbZzur-4" source="icSRo4xPD5mua4hbZzur-6" target="icSRo4xPD5mua4hbZzur-7">
          <mxGeometry x="-0.1613" y="10" width="80" relative="1" as="geometry">
            <mxPoint x="64" y="110" as="sourcePoint" />
            <mxPoint x="130" y="150" as="targetPoint" />
            <Array as="points">
              <mxPoint x="130" y="100" />
              <mxPoint x="130" y="130" />
              <mxPoint x="100" y="130" />
            </Array>
            <mxPoint x="10" y="10" as="offset" />
          </mxGeometry>
        </mxCell>
        <mxCell id="icSRo4xPD5mua4hbZzur-6" value="" style="html=1;points=[];perimeter=orthogonalPerimeter;labelBackgroundColor=none;strokeColor=#000000;fontFamily=Helvetica;fontSize=11;fontColor=default;fillColor=default;" vertex="1" parent="icSRo4xPD5mua4hbZzur-4">
          <mxGeometry x="55" y="90" width="10" height="140" as="geometry" />
        </mxCell>
        <mxCell id="icSRo4xPD5mua4hbZzur-7" value="" style="html=1;points=[];perimeter=orthogonalPerimeter;labelBackgroundColor=none;strokeColor=#B09500;fontFamily=Helvetica;fontSize=11;fontColor=#000000;fillColor=#e3c800;" vertex="1" parent="icSRo4xPD5mua4hbZzur-4">
          <mxGeometry x="60" y="130" width="10" height="20" as="geometry" />
        </mxCell>
        <mxCell id="icSRo4xPD5mua4hbZzur-8" value="Валидация данных&lt;br&gt;(Общее: валидация)" style="html=1;verticalAlign=bottom;endArrow=block;rounded=0;labelBackgroundColor=default;strokeColor=default;fontFamily=Helvetica;fontSize=11;fontColor=default;shape=connector;curved=0;" edge="1" parent="icSRo4xPD5mua4hbZzur-4" target="icSRo4xPD5mua4hbZzur-9">
          <mxGeometry x="0.0968" width="80" relative="1" as="geometry">
            <mxPoint x="65" y="160" as="sourcePoint" />
            <mxPoint x="130" y="210" as="targetPoint" />
            <Array as="points">
              <mxPoint x="130" y="160" />
              <mxPoint x="130" y="190" />
              <mxPoint x="100" y="190" />
            </Array>
            <mxPoint as="offset" />
          </mxGeometry>
        </mxCell>
        <mxCell id="icSRo4xPD5mua4hbZzur-9" value="" style="html=1;points=[];perimeter=orthogonalPerimeter;labelBackgroundColor=none;strokeColor=#001DBC;fontFamily=Helvetica;fontSize=11;fontColor=#ffffff;fillColor=#0050ef;" vertex="1" parent="icSRo4xPD5mua4hbZzur-4">
          <mxGeometry x="60" y="190" width="10" height="20" as="geometry" />
        </mxCell>
        <mxCell id="icSRo4xPD5mua4hbZzur-10" value="Запрос удаления" style="html=1;verticalAlign=bottom;endArrow=block;rounded=0;labelBackgroundColor=default;strokeColor=default;fontFamily=Helvetica;fontSize=11;fontColor=default;shape=connector;curved=0;" edge="1" parent="1" source="icSRo4xPD5mua4hbZzur-2" target="icSRo4xPD5mua4hbZzur-6">
          <mxGeometry x="0.0032" width="80" relative="1" as="geometry">
            <mxPoint x="100" y="140" as="sourcePoint" />
            <mxPoint x="180" y="140" as="targetPoint" />
            <Array as="points">
              <mxPoint x="180" y="130" />
            </Array>
            <mxPoint as="offset" />
          </mxGeometry>
        </mxCell>
        <mxCell id="icSRo4xPD5mua4hbZzur-11" value="Контроллер&lt;div&gt;городов&lt;/div&gt;" style="shape=umlLifeline;perimeter=lifelinePerimeter;whiteSpace=wrap;html=1;container=1;collapsible=0;recursiveResize=0;outlineConnect=0;labelBackgroundColor=none;strokeColor=#d79b00;fontFamily=Helvetica;fontSize=11;fillColor=#ffe6cc;" vertex="1" parent="1">
          <mxGeometry x="360" y="40" width="120" height="370" as="geometry" />
        </mxCell>
        <mxCell id="icSRo4xPD5mua4hbZzur-12" value="" style="html=1;points=[];perimeter=orthogonalPerimeter;labelBackgroundColor=none;strokeColor=#000000;fontFamily=Helvetica;fontSize=11;fontColor=default;fillColor=default;" vertex="1" parent="icSRo4xPD5mua4hbZzur-11">
          <mxGeometry x="55" y="220" width="10" height="120" as="geometry" />
        </mxCell>
        <mxCell id="icSRo4xPD5mua4hbZzur-13" value="Поиск города&lt;br&gt;(Общее: поиск по id)" style="html=1;verticalAlign=bottom;endArrow=block;rounded=0;labelBackgroundColor=default;strokeColor=default;fontFamily=Helvetica;fontSize=11;fontColor=default;shape=connector;curved=0;" edge="1" parent="icSRo4xPD5mua4hbZzur-11" target="icSRo4xPD5mua4hbZzur-14">
          <mxGeometry x="-0.1613" width="80" relative="1" as="geometry">
            <mxPoint x="65" y="230" as="sourcePoint" />
            <mxPoint x="130" y="280" as="targetPoint" />
            <Array as="points">
              <mxPoint x="130" y="230" />
              <mxPoint x="130" y="260" />
              <mxPoint x="100" y="260" />
            </Array>
            <mxPoint as="offset" />
          </mxGeometry>
        </mxCell>
        <mxCell id="icSRo4xPD5mua4hbZzur-14" value="" style="html=1;points=[];perimeter=orthogonalPerimeter;labelBackgroundColor=none;strokeColor=#488F00;fontFamily=Helvetica;fontSize=11;fontColor=#ffffff;fillColor=#66CC00;" vertex="1" parent="icSRo4xPD5mua4hbZzur-11">
          <mxGeometry x="60" y="260" width="10" height="20" as="geometry" />
        </mxCell>
        <mxCell id="icSRo4xPD5mua4hbZzur-15" value="База данных" style="shape=umlLifeline;perimeter=lifelinePerimeter;whiteSpace=wrap;html=1;container=1;collapsible=0;recursiveResize=0;outlineConnect=0;labelBackgroundColor=none;strokeColor=#82b366;fontFamily=Helvetica;fontSize=11;fillColor=#d5e8d4;" vertex="1" parent="1">
          <mxGeometry x="520" y="40" width="120" height="370" as="geometry" />
        </mxCell>
        <mxCell id="icSRo4xPD5mua4hbZzur-16" value="" style="html=1;points=[];perimeter=orthogonalPerimeter;labelBackgroundColor=none;strokeColor=#000000;fontFamily=Helvetica;fontSize=11;fontColor=default;fillColor=default;" vertex="1" parent="icSRo4xPD5mua4hbZzur-15">
          <mxGeometry x="55" y="300" width="10" height="30" as="geometry" />
        </mxCell>
        <mxCell id="icSRo4xPD5mua4hbZzur-17" value="Передача данных" style="html=1;verticalAlign=bottom;endArrow=block;rounded=0;labelBackgroundColor=default;strokeColor=default;fontFamily=Helvetica;fontSize=11;fontColor=default;shape=connector;curved=0;" edge="1" parent="1" source="icSRo4xPD5mua4hbZzur-6" target="icSRo4xPD5mua4hbZzur-12">
          <mxGeometry x="0.0032" width="80" relative="1" as="geometry">
            <mxPoint x="266" y="210" as="sourcePoint" />
            <mxPoint x="416" y="210" as="targetPoint" />
            <Array as="points">
              <mxPoint x="300" y="260" />
              <mxPoint x="350" y="260" />
            </Array>
            <mxPoint as="offset" />
          </mxGeometry>
        </mxCell>
        <mxCell id="icSRo4xPD5mua4hbZzur-18" value="Удаление города" style="html=1;verticalAlign=bottom;endArrow=block;rounded=0;labelBackgroundColor=default;strokeColor=default;fontFamily=Helvetica;fontSize=11;fontColor=default;shape=connector;curved=0;" edge="1" parent="1" source="icSRo4xPD5mua4hbZzur-12" target="icSRo4xPD5mua4hbZzur-16">
          <mxGeometry x="0.0032" width="80" relative="1" as="geometry">
            <mxPoint x="425" y="229.8" as="sourcePoint" />
            <mxPoint x="575" y="229.8" as="targetPoint" />
            <Array as="points">
              <mxPoint x="460" y="340" />
              <mxPoint x="500" y="340" />
            </Array>
            <mxPoint as="offset" />
          </mxGeometry>
        </mxCell>
        <mxCell id="icSRo4xPD5mua4hbZzur-19" value="" style="html=1;verticalAlign=bottom;endArrow=open;dashed=1;endSize=8;rounded=0;labelBackgroundColor=default;strokeColor=default;fontFamily=Helvetica;fontSize=11;fontColor=default;shape=connector;curved=0;" edge="1" parent="1" source="icSRo4xPD5mua4hbZzur-16" target="icSRo4xPD5mua4hbZzur-12">
          <mxGeometry x="0.0023" relative="1" as="geometry">
            <mxPoint x="573" y="239.8" as="sourcePoint" />
            <mxPoint x="425" y="239.8" as="targetPoint" />
            <Array as="points">
              <mxPoint x="520" y="360" />
            </Array>
            <mxPoint as="offset" />
          </mxGeometry>
        </mxCell>
        <mxCell id="icSRo4xPD5mua4hbZzur-20" value="return" style="edgeLabel;html=1;align=center;verticalAlign=middle;resizable=0;points=[];fontFamily=Helvetica;fontSize=11;fontColor=default;labelBackgroundColor=default;" vertex="1" connectable="0" parent="icSRo4xPD5mua4hbZzur-19">
          <mxGeometry x="-0.0946" relative="1" as="geometry">
            <mxPoint x="-6" y="-10" as="offset" />
          </mxGeometry>
        </mxCell>
        <mxCell id="icSRo4xPD5mua4hbZzur-21" value="" style="html=1;verticalAlign=bottom;endArrow=open;dashed=1;endSize=8;rounded=0;labelBackgroundColor=default;strokeColor=default;fontFamily=Helvetica;fontSize=11;fontColor=default;shape=connector;curved=0;" edge="1" parent="1">
          <mxGeometry x="0.0023" relative="1" as="geometry">
            <mxPoint x="413" y="370.0000000000001" as="sourcePoint" />
            <mxPoint x="102.99999999999989" y="370.0000000000001" as="targetPoint" />
            <Array as="points">
              <mxPoint x="258" y="370" />
            </Array>
            <mxPoint as="offset" />
          </mxGeometry>
        </mxCell>
        <mxCell id="icSRo4xPD5mua4hbZzur-22" value="Ответ 204" style="edgeLabel;html=1;align=center;verticalAlign=middle;resizable=0;points=[];fontFamily=Helvetica;fontSize=11;fontColor=default;labelBackgroundColor=default;" vertex="1" connectable="0" parent="icSRo4xPD5mua4hbZzur-21">
          <mxGeometry x="-0.0946" relative="1" as="geometry">
            <mxPoint x="-6" y="-10" as="offset" />
          </mxGeometry>
        </mxCell>
      </root>
    </mxGraphModel>
  </diagram>
</mxfile>
